<svg width="40" height="40" viewBox="0 0 40 40" fill="none" xmlns="http://www.w3.org/2000/svg">
<path d="M17.9999 7.4305V34.1465C17.9993 34.9754 17.7062 35.7776 17.1722 36.4116C16.6382 37.0456 15.8976 37.4708 15.0808 37.6123C14.2641 37.7538 13.4236 37.6025 12.7074 37.1851C11.9912 36.7677 11.4453 36.1109 11.1659 35.3305L6.87193 23.0305M31.9999 21.6665C33.5912 21.6665 35.1174 21.0344 36.2426 19.9091C37.3678 18.7839 37.9999 17.2578 37.9999 15.6665C37.9999 14.0752 37.3678 12.5491 36.2426 11.4239C35.1174 10.2986 33.5912 9.6665 31.9999 9.6665V21.6665ZM6.87193 23.0325C5.17437 22.3107 3.7783 21.0246 2.91999 19.3918C2.06168 17.7591 1.79385 15.8799 2.16181 14.0723C2.52976 12.2647 3.51092 10.6398 4.93924 9.4725C6.36755 8.3052 8.1553 7.66721 9.99993 7.6665H13.6639C21.8639 7.6665 28.9139 5.1985 31.9999 1.6665V29.6665C28.9139 26.1345 21.8659 23.6665 13.6639 23.6665H9.99993C8.9252 23.6681 7.86124 23.4524 6.87193 23.0325Z" stroke="white" stroke-width="3" stroke-linecap="round" stroke-linejoin="round"/>
</svg>
